<?xml version="1.0" encoding="UTF-8"?>
<!DOCTYPE svg PUBLIC "-//W3C//DTD SVG 1.1//EN" "http://www.w3.org/Graphics/SVG/1.1/DTD/svg11.dtd">
<svg version="1.1" xmlns="http://www.w3.org/2000/svg" xmlns:xlink="http://www.w3.org/1999/xlink" x="0px" y="0px" width="1200" height="650" viewBox="0, 0, 1200, 650">
  <g id="Background">
    <rect x="0" y="0" width="1200" height="650" fill="#000000" fill-opacity="0"/>
  </g>
  <g id="Layer 1">
    <g>
      <path d="M610.5,80.5 L670.5,80.5 L670.5,580.5 L610.5,580.5 z" fill="#8FC7ED"/>
      <path d="M610.5,80.5 L670.5,80.5 L670.5,580.5 L610.5,580.5 z" fill-opacity="0" stroke="#006CA9" stroke-width="2"/>
    </g>
    <text transform="matrix(1, 0, 0, 1, 666.26, 42.5)">
      <tspan x="-343.74" y="13.5" font-family="Verdana-Bold" font-size="36" fill="#294270">dice_number=2 sides=6 target=3</tspan>
    </text>
    <g>
      <path d="M80.5,580.5 L80.5,51.5" fill-opacity="0" stroke="#294270" stroke-width="6" stroke-linecap="square"/>
      <path d="M86.5,51.5 L80.5,35.5 L74.5,51.5 z" fill="#294270" fill-opacity="1" stroke="#294270" stroke-width="6" stroke-opacity="1"/>
    </g>
    <g>
      <path d="M80.5,580.5 L1099.5,580.5" fill-opacity="0" stroke="#294270" stroke-width="6" stroke-linecap="square"/>
      <path d="M1099.5,586.5 L1115.5,580.5 L1099.5,574.5 z" fill="#294270" fill-opacity="1" stroke="#294270" stroke-width="6" stroke-opacity="1"/>
    </g>
    <g>
      <path d="M530.5,161.5 L590.5,161.5 L590.5,577.5 L530.5,577.5 z" fill="#8FC7ED"/>
      <path d="M530.5,161.5 L590.5,161.5 L590.5,577.5 L530.5,577.5 z" fill-opacity="0" stroke="#006CA9" stroke-width="2"/>
    </g>
    <g>
      <path d="M290.5,410.5 L350.5,410.5 L350.5,577.5 L290.5,577.5 z" fill="#FABA00"/>
      <path d="M290.5,410.5 L350.5,410.5 L350.5,577.5 L290.5,577.5 z" fill-opacity="0" stroke="#006CA9" stroke-width="2"/>
    </g>
    <g>
      <path d="M210.5,494.5 L270.5,494.5 L270.5,577.5 L210.5,577.5 z" fill="#8FC7ED"/>
      <path d="M210.5,494.5 L270.5,494.5 L270.5,577.5 L210.5,577.5 z" fill-opacity="0" stroke="#006CA9" stroke-width="2"/>
    </g>
    <g>
      <path d="M450.5,244.5 L510.5,244.5 L510.5,577.5 L450.5,577.5 z" fill="#8FC7ED"/>
      <path d="M450.5,244.5 L510.5,244.5 L510.5,577.5 L450.5,577.5 z" fill-opacity="0" stroke="#006CA9" stroke-width="2"/>
    </g>
    <g>
      <path d="M370.5,328.5 L430.5,328.5 L430.5,578.5 L370.5,578.5 z" fill="#8FC7ED"/>
      <path d="M370.5,328.5 L430.5,328.5 L430.5,578.5 L370.5,578.5 z" fill-opacity="0" stroke="#006CA9" stroke-width="2"/>
    </g>
    <g>
      <path d="M690.5,161.5 L750.5,161.5 L750.5,577.5 L690.5,577.5 z" fill="#8FC7ED"/>
      <path d="M690.5,161.5 L750.5,161.5 L750.5,577.5 L690.5,577.5 z" fill-opacity="0" stroke="#006CA9" stroke-width="2"/>
    </g>
    <g>
      <path d="M930.5,410.5 L990.5,410.5 L990.5,577.5 L930.5,577.5 z" fill="#8FC7ED"/>
      <path d="M930.5,410.5 L990.5,410.5 L990.5,577.5 L930.5,577.5 z" fill-opacity="0" stroke="#006CA9" stroke-width="2"/>
    </g>
    <g>
      <path d="M1010.5,494.5 L1070.5,494.5 L1070.5,577.5 L1010.5,577.5 z" fill="#8FC7ED"/>
      <path d="M1010.5,494.5 L1070.5,494.5 L1070.5,577.5 L1010.5,577.5 z" fill-opacity="0" stroke="#006CA9" stroke-width="2"/>
    </g>
    <g>
      <path d="M770.5,244.5 L830.5,244.5 L830.5,577.5 L770.5,577.5 z" fill="#8FC7ED"/>
      <path d="M770.5,244.5 L830.5,244.5 L830.5,577.5 L770.5,577.5 z" fill-opacity="0" stroke="#006CA9" stroke-width="2"/>
    </g>
    <g>
      <path d="M850.5,327.5 L910.5,327.5 L910.5,577.5 L850.5,577.5 z" fill="#8FC7ED"/>
      <path d="M850.5,327.5 L910.5,327.5 L910.5,577.5 L850.5,577.5 z" fill-opacity="0" stroke="#006CA9" stroke-width="2"/>
    </g>
    <text transform="matrix(1, 0, 0, 1, 162.797, 602.5)">
      <tspan x="-12.797" y="13.5" font-family="Verdana-Bold" font-size="36" fill="#294270">1</tspan>
    </text>
    <text transform="matrix(1, 0, 0, 1, 240, 602.5)">
      <tspan x="-12.797" y="13.5" font-family="Verdana-Bold" font-size="36" fill="#294270">2</tspan>
    </text>
    <text transform="matrix(1, 0, 0, 1, 320, 602.5)">
      <tspan x="-12.797" y="13.5" font-family="Verdana-Bold" font-size="36" fill="#294270">3</tspan>
    </text>
    <text transform="matrix(1, 0, 0, 1, 400, 602.5)">
      <tspan x="-12.797" y="13.5" font-family="Verdana-Bold" font-size="36" fill="#294270">4</tspan>
    </text>
    <text transform="matrix(1, 0, 0, 1, 480, 602.5)">
      <tspan x="-12.797" y="13.5" font-family="Verdana-Bold" font-size="36" fill="#294270">5</tspan>
    </text>
    <text transform="matrix(1, 0, 0, 1, 560, 602.5)">
      <tspan x="-12.797" y="13.5" font-family="Verdana-Bold" font-size="36" fill="#294270">6</tspan>
    </text>
    <text transform="matrix(1, 0, 0, 1, 640, 602.5)">
      <tspan x="-12.797" y="13.5" font-family="Verdana-Bold" font-size="36" fill="#294270">7</tspan>
    </text>
    <text transform="matrix(1, 0, 0, 1, 720, 602.5)">
      <tspan x="-12.797" y="13.5" font-family="Verdana-Bold" font-size="36" fill="#294270">8</tspan>
    </text>
    <text transform="matrix(1, 0, 0, 1, 800, 602.5)">
      <tspan x="-12.797" y="13.5" font-family="Verdana-Bold" font-size="36" fill="#294270">9</tspan>
    </text>
    <text transform="matrix(1, 0, 0, 1, 880, 602.5)">
      <tspan x="-25.594" y="13.5" font-family="Verdana-Bold" font-size="36" fill="#294270">10</tspan>
    </text>
    <text transform="matrix(1, 0, 0, 1, 960, 602.5)">
      <tspan x="-25.594" y="13.5" font-family="Verdana-Bold" font-size="36" fill="#294270">11</tspan>
    </text>
    <text transform="matrix(1, 0, 0, 1, 1040, 602.5)">
      <tspan x="-25.594" y="13.5" font-family="Verdana-Bold" font-size="36" fill="#294270">12</tspan>
    </text>
    <text transform="matrix(1, 0, 0, 1, 1150.024, 574.605)">
      <tspan x="-8.2" y="13.5" font-family="Verdana-Bold" font-size="36" fill="#294270">t</tspan>
    </text>
    <text transform="matrix(-0, -1, 1, -0, 240, 535.5)">
      <tspan x="-39.544" y="8" font-family="Verdana-Bold" font-size="21" fill="#294270">2.78%</tspan>
    </text>
    <text transform="matrix(-0, -1, 1, -0, 1040, 535.5)">
      <tspan x="-39.544" y="8" font-family="Verdana-Bold" font-size="21" fill="#294270">2.78%</tspan>
    </text>
    <text transform="matrix(-0, -1, 1, -0, 480, 410.5)">
      <tspan x="-47.009" y="6" font-family="Verdana-Bold" font-size="21" fill="#294270">11.11%</tspan>
    </text>
    <text transform="matrix(-0, -1, 1, -0, 320, 493.5)">
      <tspan x="-39.544" y="8" font-family="Verdana-Bold" font-size="21" fill="#294270">5.56%</tspan>
    </text>
    <text transform="matrix(-0, -1, 1, -0, 400, 456.412)">
      <tspan x="-39.544" y="8" font-family="Verdana-Bold" font-size="21" fill="#294270">8.33%</tspan>
    </text>
    <text transform="matrix(-0, -1, 1, -0, 960, 493.5)">
      <tspan x="-39.544" y="8" font-family="Verdana-Bold" font-size="21" fill="#294270">5.56%</tspan>
    </text>
    <text transform="matrix(-0, -1, 1, -0, 560, 369)">
      <tspan x="-47.009" y="6" font-family="Verdana-Bold" font-size="21" fill="#294270">13.89%</tspan>
    </text>
    <text transform="matrix(-0, -1, 1, -0, 640, 330)">
      <tspan x="-47.009" y="8" font-family="Verdana-Bold" font-size="21" fill="#294270">16.67%</tspan>
    </text>
    <text transform="matrix(-0, -1, 1, -0, 720, 369)">
      <tspan x="-47.009" y="6" font-family="Verdana-Bold" font-size="21" fill="#294270">13.89%</tspan>
    </text>
    <text transform="matrix(-0, -1, 1, -0, 800, 410.5)">
      <tspan x="-47.009" y="6" font-family="Verdana-Bold" font-size="21" fill="#294270">11.11%</tspan>
    </text>
    <text transform="matrix(-0, -1, 1, -0, 880, 456.412)">
      <tspan x="-39.544" y="8" font-family="Verdana-Bold" font-size="21" fill="#294270">8.33%</tspan>
    </text>
    <text transform="matrix(1, 0, 0, 1, 122.586, 42.5)">
      <tspan x="-12.586" y="13.5" font-family="Verdana-Bold" font-size="36" fill="#294270">p</tspan>
    </text>
  </g>
  <defs/>
</svg>
