<?xml version="1.0" encoding="UTF-8" standalone="no"?>
<svg
   xmlns:dc="http://purl.org/dc/elements/1.1/"
   xmlns:cc="http://creativecommons.org/ns#"
   xmlns:rdf="http://www.w3.org/1999/02/22-rdf-syntax-ns#"
   xmlns:svg="http://www.w3.org/2000/svg"
   xmlns="http://www.w3.org/2000/svg"
   id="svg8"
   version="1.1"
   viewBox="0 0 285.75001 285.75001"
   height="1080"
   width="1080">
  <defs
     id="defs2">
    <marker
       orient="auto"
       refY="0"
       refX="0"
       id="Arrow1Mend"
       style="overflow:visible">
      <path
         id="path5322"
         d="M 0,0 5,-5 -12.5,0 5,5 Z"
         style="fill:#fa8f00;fill-opacity:1;fill-rule:evenodd;stroke:#fa8f00;stroke-width:1.00000003pt;stroke-opacity:1"
         transform="matrix(-0.4,0,0,-0.4,-4,0)" />
    </marker>
    <marker
       orient="auto"
       refY="0"
       refX="0"
       id="Arrow1Mend-4"
       style="overflow:visible">
      <path
         id="path5322-5"
         d="M 0,0 5,-5 -12.5,0 5,5 Z"
         style="fill:#fa8f00;fill-opacity:1;fill-rule:evenodd;stroke:#fa8f00;stroke-width:1.00000003pt;stroke-opacity:1"
         transform="matrix(-0.4,0,0,-0.4,-4,0)" />
    </marker>
  </defs>
  <metadata
     id="metadata5">
    <rdf:RDF>
      <cc:Work
         rdf:about="">
        <dc:format>image/svg+xml</dc:format>
        <dc:type
           rdf:resource="http://purl.org/dc/dcmitype/StillImage" />
        <dc:title></dc:title>
      </cc:Work>
    </rdf:RDF>
  </metadata>
  <rect
     y="-0.0035707499"
     x="0.0084436871"
     height="285.75"
     width="285.75"
     id="rect7624"
     style="fill:#c9ebfb;fill-opacity:1;stroke:none;stroke-width:18.2091732;stroke-linecap:round;stroke-miterlimit:4;stroke-dasharray:none;stroke-opacity:1;paint-order:markers stroke fill" />
  <g
     transform="matrix(1.4552084,0,0,1.4552084,353.40658,-315.79146)"
     id="g152" />
  <g
     transform="matrix(1.4552084,0,0,1.4552084,353.40658,-315.79146)"
     id="g154" />
  <g
     transform="matrix(1.4552084,0,0,1.4552084,353.40658,-315.79146)"
     id="g156" />
  <g
     transform="matrix(1.4552084,0,0,1.4552084,353.40658,-315.79146)"
     id="g158" />
  <g
     transform="matrix(1.4552084,0,0,1.4552084,353.40658,-315.79146)"
     id="g160" />
  <g
     transform="matrix(1.4552084,0,0,1.4552084,353.40658,-315.79146)"
     id="g162" />
  <g
     transform="matrix(1.4552084,0,0,1.4552084,353.40658,-315.79146)"
     id="g164" />
  <g
     transform="matrix(1.4552084,0,0,1.4552084,353.40658,-315.79146)"
     id="g166" />
  <g
     transform="matrix(1.4552084,0,0,1.4552084,353.40658,-315.79146)"
     id="g168" />
  <g
     transform="matrix(1.4552084,0,0,1.4552084,353.40658,-315.79146)"
     id="g170" />
  <g
     transform="matrix(1.4552084,0,0,1.4552084,353.40658,-315.79146)"
     id="g172" />
  <g
     transform="matrix(1.4552084,0,0,1.4552084,353.40658,-315.79146)"
     id="g174" />
  <g
     transform="matrix(1.4552084,0,0,1.4552084,353.40658,-315.79146)"
     id="g176" />
  <g
     transform="matrix(1.4552084,0,0,1.4552084,353.40658,-315.79146)"
     id="g178" />
  <g
     transform="matrix(1.4552084,0,0,1.4552084,353.40658,-315.79146)"
     id="g180" />
  <flowRoot
     transform="matrix(1.4552084,0,0,1.4552084,353.40658,-315.79146)"
     xml:space="preserve"
     id="flowRoot1041"
     style="font-style:normal;font-variant:normal;font-weight:500;font-stretch:normal;font-size:40px;line-height:1.25;font-family:Roboto;-inkscape-font-specification:'Roboto Medium';letter-spacing:0px;word-spacing:0px;fill:#000000;fill-opacity:1;stroke:none"><flowRegion
       id="flowRegion1043"><rect
         id="rect1045"
         width="3.9448078"
         height="40.43428"
         x="1147.9391"
         y="550.21259" /></flowRegion><flowPara
       id="flowPara1047" /></flowRoot>  <g
     transform="matrix(0.26458333,0,0,0.26458333,-108.52902,109.94032)"
     id="g4376"
     style="fill:#000000;fill-opacity:1" />
  <g
     transform="matrix(0.26458333,0,0,0.26458333,-108.52902,109.94032)"
     id="g4378"
     style="fill:#000000;fill-opacity:1" />
  <g
     transform="matrix(0.26458333,0,0,0.26458333,-108.52902,109.94032)"
     id="g4380"
     style="fill:#000000;fill-opacity:1" />
  <g
     transform="matrix(0.26458333,0,0,0.26458333,-108.52902,109.94032)"
     id="g4382"
     style="fill:#000000;fill-opacity:1" />
  <g
     transform="matrix(0.26458333,0,0,0.26458333,-108.52902,109.94032)"
     id="g4384"
     style="fill:#000000;fill-opacity:1" />
  <g
     transform="matrix(0.26458333,0,0,0.26458333,-108.52902,109.94032)"
     id="g4386"
     style="fill:#000000;fill-opacity:1" />
  <g
     transform="matrix(0.26458333,0,0,0.26458333,-108.52902,109.94032)"
     id="g4388"
     style="fill:#000000;fill-opacity:1" />
  <g
     transform="matrix(0.26458333,0,0,0.26458333,-108.52902,109.94032)"
     id="g4390"
     style="fill:#000000;fill-opacity:1" />
  <g
     transform="matrix(0.26458333,0,0,0.26458333,-108.52902,109.94032)"
     id="g4392"
     style="fill:#000000;fill-opacity:1" />
  <g
     transform="matrix(0.26458333,0,0,0.26458333,-108.52902,109.94032)"
     id="g4394"
     style="fill:#000000;fill-opacity:1" />
  <g
     transform="matrix(0.26458333,0,0,0.26458333,-108.52902,109.94032)"
     id="g4396"
     style="fill:#000000;fill-opacity:1" />
  <g
     transform="matrix(0.26458333,0,0,0.26458333,-108.52902,109.94032)"
     id="g4398"
     style="fill:#000000;fill-opacity:1" />
  <g
     transform="matrix(0.26458333,0,0,0.26458333,-108.52902,109.94032)"
     id="g4400"
     style="fill:#000000;fill-opacity:1" />
  <g
     transform="matrix(0.26458333,0,0,0.26458333,-108.52902,109.94032)"
     id="g4402"
     style="fill:#000000;fill-opacity:1" />
  <g
     transform="matrix(0.26458333,0,0,0.26458333,-108.52902,109.94032)"
     id="g4404"
     style="fill:#000000;fill-opacity:1" />
  <g
     transform="matrix(0.60854166,0,0,0.60854166,-174.64979,52.591281)"
     id="g4591"
     style="fill:#294270;fill-opacity:1" />
  <g
     transform="matrix(0.60854166,0,0,0.60854166,-174.64979,52.591281)"
     id="g4593"
     style="fill:#294270;fill-opacity:1" />
  <g
     transform="matrix(0.60854166,0,0,0.60854166,-174.64979,52.591281)"
     id="g4595"
     style="fill:#294270;fill-opacity:1" />
  <g
     transform="matrix(0.60854166,0,0,0.60854166,-174.64979,52.591281)"
     id="g4597"
     style="fill:#294270;fill-opacity:1" />
  <g
     transform="matrix(0.60854166,0,0,0.60854166,-174.64979,52.591281)"
     id="g4599"
     style="fill:#294270;fill-opacity:1" />
  <g
     transform="matrix(0.60854166,0,0,0.60854166,-174.64979,52.591281)"
     id="g4601"
     style="fill:#294270;fill-opacity:1" />
  <g
     transform="matrix(0.60854166,0,0,0.60854166,-174.64979,52.591281)"
     id="g4603"
     style="fill:#294270;fill-opacity:1" />
  <g
     transform="matrix(0.60854166,0,0,0.60854166,-174.64979,52.591281)"
     id="g4605"
     style="fill:#294270;fill-opacity:1" />
  <g
     transform="matrix(0.60854166,0,0,0.60854166,-174.64979,52.591281)"
     id="g4607"
     style="fill:#294270;fill-opacity:1" />
  <g
     transform="matrix(0.60854166,0,0,0.60854166,-174.64979,52.591281)"
     id="g4609"
     style="fill:#294270;fill-opacity:1" />
  <g
     transform="matrix(0.60854166,0,0,0.60854166,-174.64979,52.591281)"
     id="g4611"
     style="fill:#294270;fill-opacity:1" />
  <g
     transform="matrix(0.60854166,0,0,0.60854166,-174.64979,52.591281)"
     id="g4613"
     style="fill:#294270;fill-opacity:1" />
  <g
     transform="matrix(0.60854166,0,0,0.60854166,-174.64979,52.591281)"
     id="g4615"
     style="fill:#294270;fill-opacity:1" />
  <g
     transform="matrix(0.60854166,0,0,0.60854166,-174.64979,52.591281)"
     id="g4617"
     style="fill:#294270;fill-opacity:1" />
  <g
     transform="matrix(0.60854166,0,0,0.60854166,-174.64979,52.591281)"
     id="g4619"
     style="fill:#294270;fill-opacity:1" />
  <g
     style="fill:#294270;fill-opacity:1"
     id="g3436"
     transform="matrix(5.2916666,0,0,5.2916666,12.580824,12.12282)">
    <path
       style="fill:#294270;fill-opacity:1"
       id="path3438"
       d="m 19.6,21.844 -16.2,0 c -1.875,0 -3.4,1.525 -3.4,3.4 l 0,16.199 c 0,1.875 1.525,3.4 3.4,3.4 l 16.2,0 c 1.875,0 3.4,-1.525 3.4,-3.4 l 0,-16.198 c 0,-1.875 -1.525,-3.401 -3.4,-3.401 z m 1.4,19.6 c 0,0.772 -0.628,1.4 -1.4,1.4 l -16.2,0 C 2.628,42.844 2,42.216 2,41.444 L 2,25.245 c 0,-0.772 0.628,-1.4 1.4,-1.4 l 16.2,0 c 0.772,0 1.4,0.628 1.4,1.4 l 0,16.199 z" />
    <circle
       style="fill:#294270;fill-opacity:1"
       id="circle3440"
       r="2"
       cy="27.844"
       cx="6" />
    <circle
       style="fill:#294270;fill-opacity:1"
       id="circle3442"
       r="2"
       cy="27.844"
       cx="17" />
    <circle
       style="fill:#294270;fill-opacity:1"
       id="circle3444"
       r="2"
       cy="38.844002"
       cx="6" />
    <circle
       style="fill:#294270;fill-opacity:1"
       id="circle3446"
       r="2"
       cy="38.844002"
       cx="17" />
    <path
       style="fill:#294270;fill-opacity:1"
       id="path3448"
       d="M 50.155,23.081 44.828,7.782 C 44.21,6.012 42.274,5.073 40.499,5.689 l -15.3,5.327 c -1.771,0.618 -2.709,2.561 -2.092,4.329 l 5.327,15.3 c 0.299,0.857 0.913,1.547 1.73,1.942 0.469,0.227 0.972,0.341 1.478,0.341 0.377,0 0.755,-0.063 1.121,-0.191 L 48.062,27.41 c 1.77,-0.616 2.709,-2.558 2.093,-4.329 z m -2.75,2.44 -15.3,5.327 c -0.354,0.123 -0.733,0.103 -1.069,-0.062 -0.337,-0.163 -0.59,-0.446 -0.713,-0.8 l -5.327,-15.3 c -0.254,-0.729 0.133,-1.528 0.861,-1.782 l 15.3,-5.327 C 41.309,7.525 41.463,7.5 41.615,7.5 c 0.58,0 1.123,0.363 1.324,0.94 l 5.327,15.298 c 0.255,0.729 -0.132,1.529 -0.861,1.783 z" />
    <circle
       style="fill:#294270;fill-opacity:1"
       id="circle3450"
       r="2"
       cy="15.828"
       cx="29.628" />
    <circle
       style="fill:#294270;fill-opacity:1"
       id="circle3452"
       r="2"
       cy="12.211"
       cx="40.015999" />
    <circle
       style="fill:#294270;fill-opacity:1"
       id="circle3454"
       r="2"
       cy="26.216"
       cx="33.245998" />
    <circle
       style="fill:#294270;fill-opacity:1"
       id="circle3456"
       r="2"
       cy="33.678001"
       cx="11.5" />
    <circle
       style="fill:#294270;fill-opacity:1"
       id="circle3458"
       r="2"
       cy="22.599001"
       cx="43.633999" />
  </g>
  <g
     id="g3460"
     transform="matrix(2.6458333,0,0,2.6458333,-221.58406,64.167453)" />
  <g
     id="g3462"
     transform="matrix(2.6458333,0,0,2.6458333,-221.58406,64.167453)" />
  <g
     id="g3464"
     transform="matrix(2.6458333,0,0,2.6458333,-221.58406,64.167453)" />
  <g
     id="g3466"
     transform="matrix(2.6458333,0,0,2.6458333,-221.58406,64.167453)" />
  <g
     id="g3468"
     transform="matrix(2.6458333,0,0,2.6458333,-221.58406,64.167453)" />
  <g
     id="g3470"
     transform="matrix(2.6458333,0,0,2.6458333,-221.58406,64.167453)" />
  <g
     id="g3472"
     transform="matrix(2.6458333,0,0,2.6458333,-221.58406,64.167453)" />
  <g
     id="g3474"
     transform="matrix(2.6458333,0,0,2.6458333,-221.58406,64.167453)" />
  <g
     id="g3476"
     transform="matrix(2.6458333,0,0,2.6458333,-221.58406,64.167453)" />
  <g
     id="g3478"
     transform="matrix(2.6458333,0,0,2.6458333,-221.58406,64.167453)" />
  <g
     id="g3480"
     transform="matrix(2.6458333,0,0,2.6458333,-221.58406,64.167453)" />
  <g
     id="g3482"
     transform="matrix(2.6458333,0,0,2.6458333,-221.58406,64.167453)" />
  <g
     id="g3484"
     transform="matrix(2.6458333,0,0,2.6458333,-221.58406,64.167453)" />
  <g
     id="g3486"
     transform="matrix(2.6458333,0,0,2.6458333,-221.58406,64.167453)" />
  <g
     id="g3488"
     transform="matrix(2.6458333,0,0,2.6458333,-221.58406,64.167453)" />
</svg>
